# xmcd CD database file
#
# Track frame offsets:
#	150
#	18147
#	38737
#	56727
#
# Disc length: 1028 seconds
#
# Revision: 3
# Processed by: cddbd v1.5.1PL2 Copyright (c) Steve Scherf et al.
# Submitted via: CDex 1.51
#
DISCID=27040204
DTITLE=DEEN - ひとりじゃない
DYEAR=1996
DGENRE=J-Pop
TTITLE0=ひとりじゃない
TTITLE1=日曜日
TTITLE2=ひとりじゃない　カラオケ
TTITLE3=日曜日　カラオケ
EXTD=YEAR: 1996
EXTT0=
EXTT1=
EXTT2=
EXTT3=
PLAYORDER=
